# xmcd
#
# Track frame offsets:
#	150
#	10106
#	24036
#	36134
#	50641
#	61447
#	72468
#	85983
#	99305
#	112384
#	126868
#	139149
#	150973
#	163342
#	174472
#	188332
#	202186
#	213437
#	226965
#	240721
#	251548
#	262425
#	274156
#	285711
#	298499
#
# Disc length: 4152
#
# Revision: 3
# Processed by: cddbd v1.5.1PL0 Copyright (c) Steve Scherf et al.
# Submitted via: audiograbber 1.81.02
# Normalized: r1:TDELIM( - ),TSWAP
#
DISCID=7e103619
DTITLE=Disc 1 - The R&B Hits of 1952
DYEAR=2003
DGENRE=Rhythm and Blues
TTITLE0=Bull Moose Jackson - Big Ten Inch Record
TTITLE1=Rosco Gordon - Booted
TTITLE2=Earl Bostic - Moonglow
TTITLE3=Ruth Brown - 5-10-15 Hours
TTITLE4=The Dominoes - Have Mercy Baby
TTITLE5=Smiley Lewis - The Bells Are Ringing
TTITLE6=Floyd Dixon - Call Operator
TTITLE7=Muddy Waters - She Moves Me
TTITLE8=Wynonie Harris - Keep On Churnin' (Til The Butter Come)
TTITLE9=Jesse Belvin - Dream Girl
TTITLE10=John Lee Hooker - Walkin' The Boogie
TTITLE11=Dinah Washington - New Blowtop Blues
TTITLE12=Little Walter - Juke
TTITLE13=Bobby Lewis - Mumbles Blues
TTITLE14=B.B. King - You Know I Love You
TTITLE15=The Clovers - Ting-A-Ling
TTITLE16=Sonny Boy Williamson - Mr Downchild
TTITLE17=Ivory Joe Hunter - Rockin' Chair Boogie
TTITLE18=Charles Brown - Hard Times
TTITLE19=Jackie Brenston - Hi-Ho Baby
TTITLE20=Amos Milburn - Thinking And Drinking
TTITLE21=Little Esther - Saturday Night Daddy
TTITLE22=The Swallows - Beside You
TTITLE23=Tampa Red - I'm Gonna Put You Down
TTITLE24=Little Richard - Thinkin' Bout My Mother
EXTD=Indigo\nSanchuary Records Group Ltd.
EXTT0=
EXTT1=
EXTT2=
EXTT3=
EXTT4=
EXTT5=
EXTT6=
EXTT7=
EXTT8=
EXTT9=
EXTT10=
EXTT11=
EXTT12=
EXTT13=
EXTT14=
EXTT15=
EXTT16=
EXTT17=
EXTT18=
EXTT19=
EXTT20=
EXTT21=
EXTT22=
EXTT23=
EXTT24=
PLAYORDER=
